<?xml version="1.0" encoding="UTF-8" standalone="no"?><!DOCTYPE svg PUBLIC "-//W3C//DTD SVG 1.1//EN" "http://www.w3.org/Graphics/SVG/1.1/DTD/svg11.dtd"><svg width="100%" height="100%" viewBox="0 0 100 30" version="1.1" xmlns="http://www.w3.org/2000/svg" xmlns:xlink="http://www.w3.org/1999/xlink" xml:space="preserve" style="fill-rule:evenodd;clip-rule:evenodd;stroke-linejoin:round;stroke-miterlimit:1.41421;"><rect x="3.226" y="25.806" width="12.903" height="3.226" style="fill:#ebebeb;"/><path d="M0,19.355l0,9.677l3.226,0l0,-9.677l-3.226,0Z" style="fill:#ebebeb;fill-opacity:1.98;"/><g><path d="M12.981,14.594l0,4.503l-2.516,0l0,-9.162l1.961,0l3.677,4.659l0,-4.659l2.516,0l0,9.162l-2,0l-3.638,-4.503Z" style="fill:#fff;fill-rule:nonzero;"/><path d="M26.723,16.903l0,2.194l-6.529,0l0,-9.162l6.412,0l0,2.194l-3.896,0l0,1.29l3.329,0l0,2.039l-3.329,0l0,1.445l4.013,0Z" style="fill:#fff;fill-rule:nonzero;"/><path d="M27.897,19.097l0,-9.162l2.516,0l0,6.968l4.155,0l0,2.194l-6.671,0Z" style="fill:#fff;fill-rule:nonzero;"/><path d="M39.252,16.942c0.292,0 0.542,-0.065 0.748,-0.194c0.206,-0.129 0.374,-0.299 0.503,-0.509c0.129,-0.211 0.224,-0.454 0.284,-0.729c0.06,-0.276 0.09,-0.564 0.09,-0.865l0,-4.71l2.517,0l0,4.71c0,0.637 -0.082,1.232 -0.246,1.787c-0.163,0.555 -0.417,1.035 -0.761,1.439c-0.344,0.404 -0.776,0.723 -1.297,0.955c-0.52,0.232 -1.133,0.348 -1.838,0.348c-0.732,0 -1.357,-0.122 -1.878,-0.368c-0.52,-0.245 -0.948,-0.574 -1.284,-0.987c-0.335,-0.413 -0.58,-0.892 -0.735,-1.438c-0.155,-0.547 -0.232,-1.125 -0.232,-1.736l0,-4.71l2.516,0l0,4.71c0,0.301 0.03,0.592 0.09,0.871c0.06,0.28 0.155,0.525 0.284,0.736c0.129,0.21 0.295,0.378 0.497,0.503c0.202,0.125 0.449,0.187 0.742,0.187Z" style="fill:#fff;fill-rule:nonzero;"/><path d="M50.374,12.929c-0.258,-0.155 -0.525,-0.292 -0.8,-0.413c-0.232,-0.103 -0.492,-0.2 -0.78,-0.29c-0.289,-0.091 -0.57,-0.136 -0.846,-0.136c-0.223,0 -0.402,0.035 -0.535,0.104c-0.133,0.068 -0.2,0.184 -0.2,0.348c0,0.12 0.039,0.219 0.116,0.297c0.077,0.077 0.189,0.148 0.336,0.213c0.146,0.064 0.324,0.126 0.535,0.187c0.211,0.06 0.449,0.133 0.716,0.219c0.422,0.129 0.802,0.271 1.142,0.426c0.34,0.155 0.63,0.338 0.871,0.548c0.241,0.211 0.426,0.467 0.555,0.768c0.129,0.301 0.193,0.667 0.193,1.097c0,0.55 -0.101,1.013 -0.303,1.387c-0.202,0.374 -0.469,0.673 -0.8,0.897c-0.331,0.223 -0.705,0.385 -1.122,0.484c-0.418,0.098 -0.837,0.148 -1.258,0.148c-0.336,0 -0.68,-0.026 -1.033,-0.078c-0.352,-0.051 -0.703,-0.124 -1.051,-0.219c-0.349,-0.094 -0.684,-0.206 -1.007,-0.335c-0.322,-0.129 -0.621,-0.276 -0.897,-0.439l1.084,-2.207c0.301,0.19 0.615,0.357 0.942,0.504c0.276,0.129 0.587,0.245 0.936,0.348c0.348,0.103 0.703,0.155 1.064,0.155c0.276,0 0.467,-0.037 0.574,-0.11c0.108,-0.073 0.162,-0.17 0.162,-0.29c0,-0.129 -0.054,-0.239 -0.162,-0.329c-0.107,-0.09 -0.255,-0.17 -0.445,-0.239c-0.189,-0.069 -0.406,-0.137 -0.651,-0.206c-0.245,-0.069 -0.506,-0.151 -0.781,-0.245c-0.404,-0.138 -0.753,-0.286 -1.045,-0.446c-0.293,-0.159 -0.533,-0.339 -0.723,-0.542c-0.189,-0.202 -0.329,-0.432 -0.419,-0.69c-0.09,-0.258 -0.136,-0.555 -0.136,-0.89c0,-0.508 0.093,-0.955 0.278,-1.342c0.185,-0.387 0.436,-0.71 0.755,-0.968c0.318,-0.258 0.681,-0.454 1.09,-0.587c0.409,-0.133 0.841,-0.2 1.297,-0.2c0.335,0 0.662,0.032 0.98,0.097c0.319,0.064 0.626,0.146 0.923,0.245c0.297,0.099 0.574,0.206 0.832,0.323c0.258,0.116 0.491,0.225 0.697,0.329l-1.084,2.077Z" style="fill:#fff;fill-rule:nonzero;"/><path d="M59.574,19.174c-0.654,0 -1.249,-0.133 -1.787,-0.4c-0.538,-0.266 -0.998,-0.617 -1.381,-1.051c-0.382,-0.435 -0.679,-0.932 -0.89,-1.491c-0.211,-0.559 -0.316,-1.135 -0.316,-1.729c0,-0.602 0.11,-1.183 0.329,-1.742c0.219,-0.559 0.527,-1.051 0.923,-1.477c0.395,-0.426 0.862,-0.766 1.4,-1.019c0.537,-0.254 1.129,-0.381 1.774,-0.381c0.654,0 1.249,0.133 1.787,0.4c0.538,0.267 0.998,0.619 1.381,1.058c0.382,0.439 0.677,0.938 0.883,1.497c0.207,0.559 0.31,1.131 0.31,1.716c0,0.602 -0.11,1.18 -0.329,1.735c-0.219,0.555 -0.523,1.045 -0.91,1.471c-0.387,0.426 -0.851,0.768 -1.393,1.026c-0.542,0.258 -1.136,0.387 -1.781,0.387ZM57.755,14.529c0,0.31 0.036,0.609 0.11,0.897c0.073,0.288 0.187,0.544 0.341,0.768c0.155,0.223 0.349,0.404 0.581,0.541c0.232,0.138 0.503,0.207 0.813,0.207c0.318,0 0.594,-0.071 0.826,-0.213c0.232,-0.142 0.421,-0.327 0.568,-0.555c0.146,-0.228 0.255,-0.488 0.329,-0.78c0.073,-0.293 0.109,-0.59 0.109,-0.891c0,-0.309 -0.038,-0.608 -0.116,-0.897c-0.077,-0.288 -0.191,-0.541 -0.342,-0.761c-0.15,-0.219 -0.342,-0.396 -0.574,-0.529c-0.232,-0.133 -0.503,-0.2 -0.813,-0.2c-0.318,0 -0.591,0.069 -0.819,0.207c-0.228,0.137 -0.417,0.32 -0.568,0.548c-0.151,0.228 -0.262,0.486 -0.335,0.774c-0.074,0.288 -0.11,0.583 -0.11,0.884Z" style="fill:#fff;fill-rule:nonzero;"/><path d="M63.832,19.097l3.42,-9.162l2.038,0l3.407,9.162l-2.658,0l-0.555,-1.794l-2.439,0l-0.542,1.794l-2.671,0ZM68.271,12.555l-0.852,3.071l1.665,0l-0.813,-3.071Z" style="fill:#fff;fill-rule:nonzero;"/><path d="M75.897,14.594l0,4.503l-2.516,0l0,-9.162l1.961,0l3.677,4.659l0,-4.659l2.516,0l0,9.162l-2,0l-3.638,-4.503Z" style="fill:#fff;fill-rule:nonzero;"/><path d="M82.219,19.097l3.42,-9.162l2.038,0l3.407,9.162l-2.658,0l-0.555,-1.794l-2.439,0l-0.542,1.794l-2.671,0ZM86.658,12.555l-0.852,3.071l1.665,0l-0.813,-3.071Z" style="fill:#fff;fill-rule:nonzero;"/></g><rect x="83.871" y="0" width="12.903" height="3.226" style="fill:#ebebeb;"/><path d="M100,9.677l0,-9.677l-3.226,0l0,9.677l3.226,0Z" style="fill:#ebebeb;fill-opacity:1.98;"/></svg>