<!-- Generated by IcoMoon.io -->
<svg version="1.1" xmlns="http://www.w3.org/2000/svg" width="80" height="80" viewBox="0 0 80 80">
<title>pin</title>
<path fill="#f00" d="M40 0c-13.807 0-25 11.193-25 25 0 25 25 55 25 55s25-30 25-55c0-13.807-11.193-25-25-25zM40 40.313c-8.457 0-15.313-6.856-15.313-15.313s6.856-15.313 15.313-15.313 15.313 6.856 15.313 15.313-6.856 15.313-15.313 15.313zM30.313 25c0-5.35 4.337-9.688 9.688-9.688s9.688 4.337 9.688 9.688c0 5.35-4.337 9.688-9.688 9.688s-9.688-4.337-9.688-9.688z"></path>
</svg>
