<!-- Generated by IcoMoon.io -->
<svg version="1.1" xmlns="http://www.w3.org/2000/svg" width="22" height="22" viewBox="0 0 22 22">
<title>compass</title>
<path fill="#121212" d="M11.344 19.938v0c-4.746 0-8.594-3.848-8.594-8.594s3.848-8.594 8.594-8.594c4.746 0 8.594 3.848 8.594 8.594s-3.848 8.594-8.594 8.594zM11.344 19.25c4.367 0 7.906-3.54 7.906-7.906s-3.54-7.906-7.906-7.906c-4.367 0-7.906 3.54-7.906 7.906s3.54 7.906 7.906 7.906v0zM11.344 18.563c3.987 0 7.219-3.232 7.219-7.219s-3.232-7.219-7.219-7.219c-3.987 0-7.219 3.232-7.219 7.219s3.232 7.219 7.219 7.219v0zM12.559 12.559c-1.215 1.215-5.834 3.403-5.834 3.403s2.188-4.618 3.403-5.834c1.215-1.215 5.834-3.403 5.834-3.403s-2.188 4.618-3.403 5.834v0zM11.344 4.813v0c0.184 0 0.344 0.151 0.344 0.337v2.076c0 0.189-0.154 0.337-0.344 0.337-0.184 0-0.344-0.151-0.344-0.337v-2.076c0-0.189 0.154-0.337 0.344-0.337zM17.905 11.374v0c0 0.184-0.151 0.344-0.337 0.344h-2.076c-0.189 0-0.337-0.154-0.337-0.344 0-0.184 0.151-0.344 0.337-0.344h2.076c0.189 0 0.337 0.154 0.337 0.344zM11.344 17.935v0c-0.184 0-0.344-0.151-0.344-0.337v-2.076c0-0.189 0.154-0.337 0.344-0.337 0.184 0 0.344 0.151 0.344 0.337v2.076c0 0.189-0.154 0.337-0.344 0.337zM4.783 11.374v0c0-0.184 0.151-0.344 0.337-0.344h2.076c0.189 0 0.337 0.154 0.337 0.344 0 0.184-0.151 0.344-0.337 0.344h-2.076c-0.189 0-0.337-0.154-0.337-0.344zM10.605 10.656c-0.729 0.729-2.382 3.84-2.382 3.84s3.111-1.653 3.84-2.382l-1.458-1.458z"></path>
</svg>
