<!-- Generated by IcoMoon.io -->
<svg version="1.1" xmlns="http://www.w3.org/2000/svg" width="14" height="22" viewBox="0 0 14 22">
<title>device-mobile</title>
<path fill="#121212" d="M12.375 0h-11c-0.759 0-1.375 0.616-1.375 1.375v19.25c0 0.76 0.616 1.375 1.375 1.375h11c0.76 0 1.375-0.615 1.375-1.375v-19.25c0-0.759-0.615-1.375-1.375-1.375zM6.188 1.375h1.375c0.379 0 0.688 0.308 0.688 0.688s-0.309 0.688-0.688 0.688h-1.375c-0.379 0-0.688-0.308-0.688-0.688s0.308-0.688 0.688-0.688zM7.563 20.625h-1.375c-0.379 0-0.688-0.309-0.688-0.688s0.308-0.688 0.688-0.688h1.375c0.379 0 0.688 0.309 0.688 0.688s-0.309 0.688-0.688 0.688zM12.375 17.875h-11v-13.75h11v13.75z"></path>
</svg>
