<svg xmlns="http://www.w3.org/2000/svg" width="32" height="32" viewBox="0 0 32 32"><title>compass</title><path fill="#121212" d="M16.5 29C9.596 29 4 23.404 4 16.5S9.596 4 16.5 4 29 9.596 29 16.5 23.404 29 16.5 29zm0-1C22.851 28 28 22.851 28 16.5S22.851 5 16.5 5 5 10.149 5 16.5 10.149 28 16.5 28zm0-1C22.299 27 27 22.299 27 16.5S22.299 6 16.5 6 6 10.701 6 16.5 10.701 27 16.5 27zm1.768-8.732c-1.768 1.768-8.485 4.95-8.485 4.95s3.182-6.718 4.95-8.485c1.768-1.768 8.485-4.95 8.485-4.95s-3.182 6.717-4.95 8.485zM16.5 7a.5.5 0 0 1 .5.49v3.019c0 .275-.224.49-.5.49a.5.5 0 0 1-.5-.49V7.49c0-.275.224-.49.5-.49zm9.543 9.543a.5.5 0 0 1-.49.5h-3.019a.492.492 0 0 1-.49-.5.5.5 0 0 1 .49-.5h3.019c.275 0 .49.224.49.5zM16.5 26.087a.5.5 0 0 1-.5-.49v-3.019c0-.275.224-.49.5-.49a.5.5 0 0 1 .5.49v3.019c0 .275-.224.49-.5.49zm-9.543-9.544a.5.5 0 0 1 .49-.5h3.019c.275 0 .49.224.49.5a.5.5 0 0 1-.49.5H7.447a.492.492 0 0 1-.49-.5zm8.468-1.043c-1.061 1.061-3.465 5.586-3.465 5.586s4.526-2.404 5.586-3.465L15.425 15.5z"/></svg>