<svg xmlns="http://www.w3.org/2000/svg" width="24" height="24" viewBox="0 0 24 24"><title>instagram</title><path d="M20.4 1.2H3.6c-1.32 0-2.4 1.08-2.4 2.4v16.8c0 1.321 1.08 2.4 2.4 2.4h16.8c1.32 0 2.4-1.079 2.4-2.4V3.6c0-1.32-1.08-2.4-2.4-2.4zm-8.419 17.428a6.647 6.647 0 0 0 6.646-6.647c0-.406-.052-.797-.124-1.181H20.4v8.659a.83.83 0 0 1-.832.828H4.431a.83.83 0 0 1-.832-.828V10.8h1.859a6.29 6.29 0 0 0-.125 1.181 6.648 6.648 0 0 0 6.647 6.647zm-4.153-6.647a4.153 4.153 0 1 1 8.307 0 4.153 4.153 0 0 1-8.307 0zM19.568 7.2H17.63a.832.832 0 0 1-.83-.83V4.43a.83.83 0 0 1 .829-.829h1.938a.83.83 0 0 1 .833.829v1.939a.833.833 0 0 1-.832.832z"/></svg>