<svg viewBox="0 0 100 30" xmlns="http://www.w3.org/2000/svg" fill-rule="evenodd" clip-rule="evenodd" stroke-linejoin="round" stroke-miterlimit="1.414"><path fill="#ebebeb" d="M3.226 25.806h12.903v3.226H3.226z"/><path d="M0 19.355v9.677h3.226v-9.677H0z" fill="#ebebeb" fill-opacity="1.98"/><g fill="#fff" fill-rule="nonzero"><path d="M12.981 14.594v4.503h-2.516V9.935h1.961l3.677 4.659V9.935h2.516v9.162h-2l-3.638-4.503zM26.723 16.903v2.194h-6.529V9.935h6.412v2.194H22.71v1.29h3.329v2.039H22.71v1.445h4.013zM27.897 19.097V9.935h2.516v6.968h4.155v2.194h-6.671zM39.252 16.942c.292 0 .542-.065.748-.194.206-.129.374-.299.503-.509.129-.211.224-.454.284-.729.06-.276.09-.564.09-.865v-4.71h2.517v4.71c0 .637-.082 1.232-.246 1.787a3.872 3.872 0 0 1-.761 1.439 3.596 3.596 0 0 1-1.297.955c-.52.232-1.133.348-1.838.348-.732 0-1.357-.122-1.878-.368a3.608 3.608 0 0 1-1.284-.987 3.977 3.977 0 0 1-.735-1.438 6.336 6.336 0 0 1-.232-1.736v-4.71h2.516v4.71c0 .301.03.592.09.871.06.28.155.525.284.736.129.21.295.378.497.503s.449.187.742.187zM50.374 12.929a7.116 7.116 0 0 0-1.58-.703 2.803 2.803 0 0 0-.846-.136c-.223 0-.402.035-.535.104-.133.068-.2.184-.2.348 0 .12.039.219.116.297.077.077.189.148.336.213.146.064.324.126.535.187.211.06.449.133.716.219.422.129.802.271 1.142.426.34.155.63.338.871.548.241.211.426.467.555.768.129.301.193.667.193 1.097 0 .55-.101 1.013-.303 1.387a2.492 2.492 0 0 1-.8.897 3.391 3.391 0 0 1-1.122.484 5.493 5.493 0 0 1-1.258.148c-.336 0-.68-.026-1.033-.078a9.071 9.071 0 0 1-2.058-.554 6.556 6.556 0 0 1-.897-.439l1.084-2.207c.301.19.615.357.942.504.276.129.587.245.936.348.348.103.703.155 1.064.155.276 0 .467-.037.574-.11a.336.336 0 0 0 .162-.29.414.414 0 0 0-.162-.329 1.47 1.47 0 0 0-.445-.239 9.17 9.17 0 0 0-.651-.206 15 15 0 0 1-.781-.245 6.689 6.689 0 0 1-1.045-.446 2.818 2.818 0 0 1-.723-.542 1.932 1.932 0 0 1-.419-.69 2.698 2.698 0 0 1-.136-.89c0-.508.093-.955.278-1.342a2.75 2.75 0 0 1 .755-.968 3.363 3.363 0 0 1 1.09-.587c.409-.133.841-.2 1.297-.2.335 0 .662.032.98.097.319.064.626.146.923.245.297.099.574.206.832.323.258.116.491.225.697.329l-1.084 2.077zM59.574 19.174a3.962 3.962 0 0 1-1.787-.4 4.454 4.454 0 0 1-1.381-1.051 4.816 4.816 0 0 1-.89-1.491 4.855 4.855 0 0 1-.316-1.729c0-.602.11-1.183.329-1.742a4.625 4.625 0 0 1 .923-1.477 4.503 4.503 0 0 1 1.4-1.019 4.098 4.098 0 0 1 1.774-.381c.654 0 1.249.133 1.787.4.538.267.998.619 1.381 1.058.382.439.677.938.883 1.497.207.559.31 1.131.31 1.716 0 .602-.11 1.18-.329 1.735a4.772 4.772 0 0 1-.91 1.471 4.434 4.434 0 0 1-1.393 1.026 4.091 4.091 0 0 1-1.781.387zm-1.819-4.645c0 .31.036.609.11.897.073.288.187.544.341.768.155.223.349.404.581.541.232.138.503.207.813.207.318 0 .594-.071.826-.213.232-.142.421-.327.568-.555.146-.228.255-.488.329-.78.073-.293.109-.59.109-.891 0-.309-.038-.608-.116-.897a2.449 2.449 0 0 0-.342-.761 1.732 1.732 0 0 0-.574-.529 1.606 1.606 0 0 0-.813-.2c-.318 0-.591.069-.819.207-.228.137-.417.32-.568.548a2.502 2.502 0 0 0-.335.774 3.54 3.54 0 0 0-.11.884zM63.832 19.097l3.42-9.162h2.038l3.407 9.162h-2.658l-.555-1.794h-2.439l-.542 1.794h-2.671zm4.439-6.542l-.852 3.071h1.665l-.813-3.071zM75.897 14.594v4.503h-2.516V9.935h1.961l3.677 4.659V9.935h2.516v9.162h-2l-3.638-4.503zM82.219 19.097l3.42-9.162h2.038l3.407 9.162h-2.658l-.555-1.794h-2.439l-.542 1.794h-2.671zm4.439-6.542l-.852 3.071h1.665l-.813-3.071z"/></g><path fill="#ebebeb" d="M83.871 0h12.903v3.226H83.871z"/><path d="M100 9.677V0h-3.226v9.677H100z" fill="#ebebeb" fill-opacity="1.98"/></svg>