<?xml version="1.0" encoding="UTF-8" standalone="no"?><!DOCTYPE svg PUBLIC "-//W3C//DTD SVG 1.1//EN" "http://www.w3.org/Graphics/SVG/1.1/DTD/svg11.dtd"><svg width="100%" height="100%" viewBox="0 0 225 60" version="1.1" xmlns="http://www.w3.org/2000/svg" xmlns:xlink="http://www.w3.org/1999/xlink" xml:space="preserve" style="fill-rule:evenodd;clip-rule:evenodd;stroke-linejoin:round;stroke-miterlimit:1.41421;"><g><path d="M1,55.898c0.128,-0.164 0.406,-0.528 0.834,-1.093c0.428,-0.565 0.93,-1.322 1.504,-2.27c0.574,-0.948 1.189,-2.083 1.846,-3.404c0.656,-1.322 1.276,-2.821 1.859,-4.498c0.583,-1.677 1.098,-3.528 1.545,-5.551c0.447,-2.023 0.752,-4.202 0.916,-6.535c0.255,-3.427 0.46,-6.544 0.615,-9.352c0.155,-2.807 0.274,-5.213 0.356,-7.218c0.082,-2.006 0.136,-3.56 0.164,-4.663c0.027,-1.102 0.041,-1.663 0.041,-1.681l1.066,-0.11c0.474,2.334 0.939,4.731 1.395,7.192c0.455,2.461 0.925,4.913 1.408,7.355c0.483,2.443 0.98,4.836 1.49,7.178c0.51,2.342 1.066,4.557 1.668,6.645c0.602,2.087 1.249,4.01 1.941,5.769c0.693,1.759 1.454,3.277 2.284,4.553c0.829,1.276 1.741,2.269 2.734,2.98c0.994,0.711 2.083,1.067 3.268,1.067c0.765,0 1.558,-0.265 2.379,-0.793c0.82,-0.529 1.567,-1.386 2.242,-2.571c0.674,-1.184 1.23,-2.725 1.668,-4.621c0.437,-1.895 0.656,-4.201 0.656,-6.918c0,-1.622 -0.087,-3.381 -0.26,-5.277c-0.173,-1.896 -0.442,-3.851 -0.806,-5.865c-0.365,-2.015 -0.816,-4.033 -1.354,-6.057c-0.538,-2.023 -1.176,-3.969 -1.914,-5.838c-0.738,-1.868 -1.572,-3.623 -2.502,-5.263c-0.93,-1.641 -1.96,-3.072 -3.09,-4.293l0.738,-0.766c1.204,1.294 2.293,2.771 3.268,4.43c0.975,1.659 1.841,3.436 2.598,5.332c0.756,1.896 1.408,3.864 1.955,5.906c0.547,2.042 0.998,4.083 1.353,6.125c0.356,2.042 0.62,4.047 0.793,6.016c0.173,1.968 0.26,3.819 0.26,5.55c0,2.279 -0.191,4.467 -0.574,6.563c-0.383,2.096 -0.971,3.946 -1.764,5.551c-0.793,1.604 -1.791,2.88 -2.994,3.828c-1.203,0.948 -2.634,1.422 -4.293,1.422c-1.313,0 -2.511,-0.324 -3.596,-0.971c-1.084,-0.647 -2.073,-1.545 -2.967,-2.693c-0.893,-1.149 -1.69,-2.511 -2.392,-4.088c-0.702,-1.577 -1.326,-3.291 -1.873,-5.141c-0.547,-1.85 -1.03,-3.801 -1.449,-5.851c-0.42,-2.051 -0.784,-4.134 -1.094,-6.249c-0.31,-2.114 -0.579,-4.22 -0.807,-6.316c-0.228,-2.096 -0.424,-4.111 -0.588,-6.043c-0.091,1.969 -0.232,4.234 -0.423,6.795c-0.192,2.561 -0.37,5.373 -0.534,8.436c-0.182,3.135 -0.506,5.951 -0.97,8.449c-0.465,2.497 -1.076,4.721 -1.832,6.672c-0.757,1.95 -1.646,3.659 -2.666,5.127c-1.021,1.467 -2.188,2.729 -3.5,3.787l-0.602,-0.739Z" style="fill:#fff;fill-rule:nonzero;"/><path d="M47.566,49.527c-0.929,0 -1.823,-0.164 -2.679,-0.492c-0.857,-0.328 -1.609,-0.825 -2.256,-1.49c-0.647,-0.665 -1.162,-1.499 -1.545,-2.502c-0.383,-1.003 -0.574,-2.178 -0.574,-3.527c0,-1.641 0.237,-3.104 0.711,-4.389c0.474,-1.285 1.08,-2.37 1.818,-3.254c0.738,-0.884 1.563,-1.559 2.475,-2.023c0.911,-0.465 1.804,-0.698 2.679,-0.698c1.131,0 2.028,0.374 2.694,1.121c0.665,0.748 0.998,1.714 0.998,2.899c0,1.021 -0.192,1.946 -0.574,2.775c-0.383,0.83 -0.889,1.541 -1.518,2.133c-0.629,0.593 -1.349,1.053 -2.16,1.381c-0.811,0.328 -1.655,0.492 -2.53,0.492c-0.419,0 -0.815,-0.023 -1.189,-0.068c-0.374,-0.046 -0.706,-0.096 -0.998,-0.151c0.109,1.131 0.328,2.106 0.656,2.926c0.328,0.82 0.739,1.495 1.231,2.024c0.492,0.528 1.043,0.92 1.654,1.175c0.611,0.256 1.244,0.383 1.9,0.383c0.821,0 1.577,-0.2 2.27,-0.601c0.693,-0.401 1.331,-0.926 1.914,-1.573c0.583,-0.647 1.117,-1.39 1.6,-2.228c0.483,-0.839 0.916,-1.691 1.298,-2.557c0.383,-0.866 0.725,-1.713 1.026,-2.543c0.301,-0.829 0.569,-1.563 0.806,-2.201l1.067,0.274c-0.237,0.601 -0.515,1.33 -0.834,2.187c-0.319,0.857 -0.688,1.755 -1.108,2.693c-0.419,0.939 -0.911,1.878 -1.476,2.817c-0.565,0.939 -1.203,1.777 -1.914,2.515c-0.711,0.739 -1.518,1.34 -2.42,1.805c-0.902,0.465 -1.91,0.697 -3.022,0.697ZM48.25,32.219c-0.674,0 -1.335,0.214 -1.982,0.642c-0.648,0.429 -1.226,1.017 -1.737,1.764c-0.51,0.747 -0.925,1.632 -1.244,2.652c-0.319,1.021 -0.478,2.115 -0.478,3.282c0.237,0.091 0.569,0.168 0.998,0.232c0.428,0.064 0.952,0.096 1.572,0.096c0.656,0 1.308,-0.142 1.955,-0.424c0.647,-0.283 1.23,-0.675 1.75,-1.176c0.52,-0.501 0.939,-1.098 1.258,-1.791c0.319,-0.693 0.478,-1.449 0.478,-2.269c0,-0.401 -0.054,-0.784 -0.164,-1.149c-0.109,-0.364 -0.273,-0.683 -0.492,-0.957c-0.219,-0.273 -0.488,-0.492 -0.807,-0.656c-0.319,-0.164 -0.688,-0.246 -1.107,-0.246Z" style="fill:#fff;fill-rule:nonzero;"/><path d="M66.707,15.457c0,1.148 -0.132,2.37 -0.396,3.664c-0.265,1.294 -0.611,2.607 -1.04,3.938c-0.428,1.33 -0.92,2.67 -1.476,4.019c-0.556,1.349 -1.117,2.643 -1.682,3.883c-0.565,1.24 -1.121,2.415 -1.668,3.527c-0.547,1.112 -1.03,2.106 -1.449,2.981c0.073,1.495 0.201,2.843 0.383,4.047c0.182,1.203 0.41,2.228 0.684,3.076c0.273,0.847 0.601,1.499 0.984,1.955c0.383,0.456 0.82,0.683 1.312,0.683c0.547,0 1.09,-0.255 1.627,-0.765c0.538,-0.511 1.08,-1.231 1.627,-2.16c0.547,-0.93 1.103,-2.051 1.668,-3.364c0.565,-1.312 1.14,-2.78 1.723,-4.402l1.066,0.274c-0.437,1.257 -0.929,2.583 -1.476,3.978c-0.547,1.395 -1.158,2.675 -1.832,3.842c-0.675,1.166 -1.408,2.133 -2.201,2.898c-0.793,0.766 -1.646,1.149 -2.557,1.149c-0.912,0 -1.677,-0.283 -2.297,-0.848c-0.62,-0.565 -1.13,-1.308 -1.531,-2.228c-0.401,-0.921 -0.711,-1.969 -0.93,-3.145c-0.219,-1.176 -0.383,-2.374 -0.492,-3.596c-0.109,-1.221 -0.173,-2.411 -0.191,-3.568c-0.019,-1.158 -0.028,-2.183 -0.028,-3.076c0,-1.659 0.069,-3.309 0.205,-4.949c0.137,-1.641 0.347,-3.209 0.629,-4.704c0.283,-1.494 0.624,-2.884 1.026,-4.17c0.401,-1.285 0.87,-2.397 1.408,-3.335c0.537,-0.939 1.13,-1.673 1.777,-2.202c0.647,-0.528 1.354,-0.793 2.119,-0.793c0.547,0 1.012,0.092 1.395,0.274c0.383,0.182 0.692,0.428 0.929,0.738c0.237,0.31 0.411,0.67 0.52,1.08c0.109,0.41 0.164,0.843 0.164,1.299ZM58.832,31.207c0,0.693 0,1.372 0,2.037c0,0.666 0.018,1.308 0.055,1.928c0.455,-0.912 0.939,-1.91 1.449,-2.994c0.51,-1.085 1.016,-2.206 1.518,-3.364c0.501,-1.157 0.979,-2.328 1.435,-3.513c0.456,-1.185 0.857,-2.347 1.203,-3.487c0.347,-1.139 0.625,-2.224 0.834,-3.253c0.21,-1.03 0.315,-1.965 0.315,-2.803c0,-0.274 -0.023,-0.565 -0.069,-0.875c-0.045,-0.31 -0.127,-0.597 -0.246,-0.862c-0.118,-0.264 -0.287,-0.483 -0.506,-0.656c-0.218,-0.173 -0.501,-0.26 -0.847,-0.26c-0.693,0 -1.354,0.452 -1.983,1.354c-0.629,0.902 -1.176,2.156 -1.64,3.76c-0.465,1.604 -0.834,3.513 -1.108,5.728c-0.273,2.215 -0.41,4.635 -0.41,7.26Z" style="fill:#fff;fill-rule:nonzero;"/><path d="M79.477,43.594c-0.566,1.021 -1.112,1.868 -1.641,2.543c-0.529,0.674 -1.053,1.212 -1.572,1.613c-0.52,0.401 -1.044,0.684 -1.573,0.848c-0.528,0.164 -1.075,0.246 -1.64,0.246c-0.456,0 -0.975,-0.073 -1.559,-0.219c-0.583,-0.146 -1.135,-0.451 -1.654,-0.916c-0.52,-0.465 -0.957,-1.135 -1.313,-2.01c-0.355,-0.875 -0.533,-2.051 -0.533,-3.527c0,-1.477 0.173,-2.867 0.52,-4.17c0.346,-1.303 0.729,-2.447 1.148,-3.432c0.492,-1.13 1.057,-2.178 1.695,-3.144l1.012,0.328c-0.018,0.018 -0.077,0.182 -0.178,0.492c-0.1,0.31 -0.227,0.729 -0.382,1.258c-0.155,0.529 -0.319,1.139 -0.493,1.832c-0.173,0.693 -0.337,1.426 -0.492,2.201c-0.155,0.775 -0.282,1.563 -0.383,2.365c-0.1,0.802 -0.15,1.577 -0.15,2.325c0,1.713 0.305,3.067 0.916,4.06c0.611,0.994 1.408,1.49 2.393,1.49c1.093,0 2.151,-0.633 3.172,-1.9c1.02,-1.267 1.996,-3.04 2.925,-5.318c0.164,-1.058 0.388,-2.042 0.67,-2.954c0.283,-0.911 0.565,-1.722 0.848,-2.433c0.282,-0.711 0.542,-1.304 0.779,-1.777c0.237,-0.474 0.41,-0.793 0.52,-0.958l0.957,0.219c-0.292,1.367 -0.543,2.593 -0.752,3.678c-0.21,1.085 -0.378,2.064 -0.506,2.939c-0.128,0.875 -0.223,1.655 -0.287,2.338c-0.064,0.684 -0.096,1.299 -0.096,1.846c0,1.094 0.173,1.969 0.52,2.625c0.346,0.656 0.884,0.984 1.613,0.984c0.492,0 0.966,-0.182 1.422,-0.546c0.456,-0.365 0.93,-0.967 1.422,-1.805c0.492,-0.839 1.011,-1.923 1.558,-3.254c0.547,-1.331 1.167,-2.971 1.86,-4.922l1.066,0.273c-0.31,0.766 -0.62,1.586 -0.93,2.461c-0.31,0.875 -0.642,1.75 -0.998,2.625c-0.355,0.875 -0.729,1.714 -1.121,2.516c-0.392,0.802 -0.829,1.513 -1.312,2.133c-0.483,0.62 -1.007,1.112 -1.573,1.476c-0.565,0.365 -1.194,0.547 -1.886,0.547c-0.656,0 -1.231,-0.127 -1.723,-0.383c-0.492,-0.255 -0.907,-0.601 -1.244,-1.039c-0.337,-0.437 -0.592,-0.961 -0.766,-1.572c-0.173,-0.611 -0.259,-1.271 -0.259,-1.982Z" style="fill:#fff;fill-rule:nonzero;"/><path d="M92.191,34.461c-0.2,0.529 -0.396,1.048 -0.587,1.559c-0.192,0.51 -0.402,1.02 -0.629,1.531c-0.228,0.51 -0.497,1.012 -0.807,1.504c-0.31,0.492 -0.684,0.993 -1.121,1.504l-0.219,-0.219c0.474,-1.149 0.893,-2.324 1.258,-3.527c0.365,-1.204 0.729,-2.553 1.094,-4.047c-0.091,-0.256 -0.173,-0.474 -0.246,-0.657c-0.073,-0.182 -0.137,-0.351 -0.192,-0.505c-0.054,-0.155 -0.1,-0.319 -0.137,-0.493c-0.036,-0.173 -0.054,-0.369 -0.054,-0.588c0,-0.291 0.041,-0.615 0.123,-0.97c0.082,-0.356 0.2,-0.688 0.355,-0.998c0.155,-0.31 0.333,-0.57 0.534,-0.78c0.2,-0.209 0.41,-0.314 0.628,-0.314c0.256,0 0.461,0.059 0.616,0.178c0.155,0.118 0.278,0.269 0.369,0.451c0.091,0.182 0.155,0.374 0.191,0.574c0.037,0.201 0.055,0.392 0.055,0.574c0,0.274 -0.032,0.588 -0.096,0.944c-0.064,0.355 -0.137,0.701 -0.219,1.039c-0.082,0.337 -0.155,0.633 -0.218,0.888c-0.064,0.256 -0.096,0.42 -0.096,0.493c0.146,0.492 0.396,0.993 0.752,1.503c0.355,0.511 0.761,1.03 1.217,1.559c0.455,0.529 0.934,1.08 1.435,1.654c0.502,0.575 0.957,1.181 1.367,1.819c0.411,0.638 0.748,1.317 1.012,2.037c0.264,0.72 0.397,1.481 0.397,2.283c0,1.148 -0.169,2.078 -0.506,2.789c-0.337,0.711 -0.789,1.258 -1.354,1.641c0.821,-0.328 1.591,-0.912 2.311,-1.75c0.72,-0.839 1.385,-1.8 1.996,-2.885c0.611,-1.085 1.176,-2.219 1.695,-3.404c0.52,-1.185 0.98,-2.288 1.381,-3.309l1.067,0.273c-0.62,1.586 -1.277,3.136 -1.969,4.649c-0.693,1.513 -1.477,2.862 -2.352,4.047c-0.875,1.185 -1.864,2.142 -2.967,2.871c-1.102,0.729 -2.365,1.094 -3.787,1.094c-0.383,0 -0.77,-0.032 -1.162,-0.096c-0.392,-0.064 -0.775,-0.164 -1.148,-0.301c-0.374,-0.137 -0.725,-0.323 -1.053,-0.56c-0.328,-0.237 -0.611,-0.52 -0.848,-0.848l0.903,-0.602c0.164,0.256 0.419,0.493 0.765,0.711c0.347,0.219 0.802,0.328 1.368,0.328c0.546,0 1.025,-0.113 1.435,-0.341c0.41,-0.228 0.757,-0.538 1.039,-0.93c0.283,-0.392 0.492,-0.852 0.629,-1.381c0.137,-0.529 0.205,-1.094 0.205,-1.695c0,-1.24 -0.178,-2.306 -0.533,-3.199c-0.356,-0.894 -0.775,-1.691 -1.258,-2.393c-0.483,-0.702 -0.975,-1.344 -1.476,-1.928c-0.502,-0.583 -0.889,-1.176 -1.163,-1.777Z" style="fill:#fff;fill-rule:nonzero;"/><path d="M152.402,32.438c-0.018,3.427 -0.464,6.485 -1.339,9.173c-0.875,2.689 -2.111,4.972 -3.706,6.85c-1.595,1.878 -3.518,3.309 -5.769,4.293c-2.251,0.984 -4.753,1.476 -7.506,1.476c-2.589,0 -4.958,-0.501 -7.109,-1.503c-2.151,-1.003 -3.997,-2.379 -5.537,-4.129c-1.541,-1.75 -2.739,-3.819 -3.596,-6.207c-0.857,-2.388 -1.285,-4.977 -1.285,-7.766c0,-2.37 0.237,-4.548 0.711,-6.535c0.474,-1.987 1.098,-3.801 1.873,-5.442c0.774,-1.64 1.672,-3.117 2.693,-4.429c1.021,-1.313 2.074,-2.475 3.158,-3.487c1.085,-1.011 2.174,-1.891 3.268,-2.638c1.094,-0.748 2.101,-1.377 3.021,-1.887c0.921,-0.51 1.723,-0.911 2.407,-1.203c0.683,-0.292 1.171,-0.492 1.462,-0.602l0.329,0.903c-0.566,0.237 -1.34,0.619 -2.325,1.148c-0.984,0.529 -2.05,1.226 -3.199,2.092c-1.148,0.866 -2.315,1.923 -3.5,3.172c-1.185,1.248 -2.256,2.698 -3.213,4.347c-0.957,1.65 -1.741,3.523 -2.351,5.62c-0.611,2.096 -0.916,4.438 -0.916,7.027c0,2.716 0.323,5.296 0.97,7.738c0.647,2.443 1.618,4.585 2.912,6.426c1.295,1.841 2.913,3.304 4.854,4.389c1.941,1.084 4.215,1.627 6.822,1.627c0.748,0 1.655,-0.114 2.721,-0.342c1.066,-0.228 2.183,-0.634 3.35,-1.217c1.166,-0.583 2.328,-1.367 3.486,-2.352c1.157,-0.984 2.192,-2.233 3.103,-3.746c0.912,-1.513 1.655,-3.322 2.229,-5.427c0.574,-2.106 0.861,-4.562 0.861,-7.37c0,-0.783 -0.032,-1.599 -0.095,-2.447c-0.064,-0.847 -0.169,-1.691 -0.315,-2.529c-1.622,1.367 -3.386,2.456 -5.291,3.268c-1.905,0.811 -3.924,1.216 -6.057,1.216c-1.403,0 -2.716,-0.196 -3.937,-0.588c-1.221,-0.392 -2.283,-0.947 -3.186,-1.668c-0.902,-0.72 -1.613,-1.576 -2.132,-2.57c-0.52,-0.993 -0.78,-2.092 -0.78,-3.295c0,-1.531 0.297,-2.894 0.889,-4.088c0.592,-1.194 1.372,-2.196 2.338,-3.007c0.966,-0.812 2.064,-1.431 3.295,-1.86c1.23,-0.428 2.493,-0.642 3.787,-0.642c1.768,0 3.318,0.305 4.648,0.916c1.331,0.61 2.47,1.426 3.418,2.447c0.948,1.021 1.727,2.196 2.338,3.527c0.611,1.331 1.08,2.716 1.408,4.156c0.875,-0.856 1.687,-1.813 2.434,-2.871c0.747,-1.057 1.431,-2.269 2.051,-3.636l1.011,0.41c-1.348,2.807 -3.108,5.268 -5.277,7.383c0.201,1.02 0.346,2.023 0.438,3.007c0.091,0.985 0.136,1.942 0.136,2.871ZM140.344,29.867c1.804,0 3.586,-0.291 5.345,-0.875c1.76,-0.583 3.414,-1.522 4.963,-2.816c-0.31,-1.422 -0.742,-2.785 -1.298,-4.088c-0.556,-1.303 -1.267,-2.461 -2.133,-3.473c-0.866,-1.011 -1.905,-1.818 -3.117,-2.42c-1.213,-0.601 -2.63,-0.902 -4.252,-0.902c-1.313,0 -2.457,0.2 -3.432,0.602c-0.975,0.401 -1.791,0.938 -2.447,1.613c-0.657,0.674 -1.149,1.454 -1.477,2.338c-0.328,0.884 -0.492,1.8 -0.492,2.748c0,0.802 0.141,1.631 0.424,2.488c0.282,0.857 0.752,1.641 1.408,2.352c0.656,0.711 1.518,1.294 2.584,1.75c1.066,0.455 2.374,0.683 3.924,0.683Z" style="fill:#fff;fill-rule:nonzero;"/><path d="M178.488,36.813c-0.747,2.023 -1.426,3.718 -2.037,5.085c-0.611,1.368 -1.203,2.47 -1.777,3.309c-0.574,0.839 -1.144,1.44 -1.709,1.805c-0.565,0.364 -1.185,0.547 -1.86,0.547c-0.82,0 -1.522,-0.288 -2.105,-0.862c-0.583,-0.574 -0.948,-1.463 -1.094,-2.666c-0.583,1.258 -1.34,2.283 -2.269,3.076c-0.93,0.793 -2.097,1.19 -3.5,1.19c-0.748,0 -1.463,-0.137 -2.147,-0.41c-0.683,-0.274 -1.289,-0.698 -1.818,-1.272c-0.529,-0.574 -0.953,-1.299 -1.272,-2.174c-0.319,-0.875 -0.478,-1.905 -0.478,-3.089c0,-1.204 0.15,-2.334 0.451,-3.391c0.301,-1.057 0.697,-2.028 1.19,-2.912c0.492,-0.884 1.061,-1.673 1.708,-2.365c0.648,-0.693 1.318,-1.276 2.01,-1.75c0.693,-0.474 1.386,-0.839 2.078,-1.094c0.693,-0.255 1.331,-0.383 1.914,-0.383c0.511,0 1.003,0.064 1.477,0.191c0.474,0.128 0.898,0.333 1.271,0.616c0.374,0.282 0.675,0.66 0.903,1.134c0.228,0.474 0.342,1.067 0.342,1.778c0,0.838 -0.16,1.567 -0.479,2.187c-0.319,0.62 -0.702,1.14 -1.148,1.559c-0.447,0.419 -0.903,0.756 -1.368,1.012c-0.464,0.255 -0.833,0.437 -1.107,0.546l-0.328,-1.066c0.055,0 0.26,-0.073 0.615,-0.219c0.356,-0.146 0.729,-0.387 1.121,-0.724c0.392,-0.338 0.752,-0.77 1.08,-1.299c0.328,-0.529 0.493,-1.176 0.493,-1.942c0,-0.875 -0.247,-1.544 -0.739,-2.009c-0.492,-0.465 -1.121,-0.698 -1.886,-0.698c-0.584,0 -1.267,0.21 -2.051,0.629c-0.784,0.42 -1.536,1.076 -2.256,1.969c-0.72,0.893 -1.331,2.024 -1.832,3.391c-0.501,1.367 -0.752,2.998 -0.752,4.894c0,1.878 0.333,3.309 0.998,4.293c0.665,0.985 1.563,1.477 2.693,1.477c0.565,0 1.108,-0.16 1.627,-0.479c0.52,-0.319 0.998,-0.743 1.436,-1.271c0.437,-0.529 0.829,-1.144 1.176,-1.846c0.346,-0.702 0.647,-1.426 0.902,-2.174c0,-0.583 0.068,-1.271 0.205,-2.064c0.137,-0.793 0.351,-1.6 0.643,-2.42l1.668,0.547c-0.092,0.237 -0.183,0.547 -0.274,0.929c-0.091,0.383 -0.178,0.803 -0.26,1.258c-0.082,0.456 -0.15,0.925 -0.205,1.408c-0.054,0.484 -0.082,0.953 -0.082,1.409c0,1.422 0.142,2.401 0.424,2.939c0.283,0.538 0.77,0.807 1.463,0.807c0.401,0 0.797,-0.146 1.189,-0.438c0.392,-0.291 0.816,-0.802 1.272,-1.531c0.456,-0.729 0.957,-1.718 1.504,-2.967c0.547,-1.248 1.185,-2.83 1.914,-4.744l1.066,0.274Z" style="fill:#fff;fill-rule:nonzero;"/><path d="M177.422,36.539c0.273,-0.711 0.57,-1.39 0.889,-2.037c0.319,-0.647 0.66,-1.217 1.025,-1.709c0.365,-0.492 0.761,-0.889 1.189,-1.189c0.429,-0.301 0.907,-0.452 1.436,-0.452c0.255,0 0.547,0.055 0.875,0.164c0.328,0.11 0.643,0.329 0.943,0.657c0.301,0.328 0.552,0.802 0.752,1.422c0.201,0.619 0.301,1.44 0.301,2.46c0,0.529 -0.027,1.112 -0.082,1.75c-0.055,0.638 -0.109,1.267 -0.164,1.887c0.565,-1.203 1.126,-2.219 1.682,-3.049c0.556,-0.829 1.102,-1.494 1.64,-1.996c0.538,-0.501 1.071,-0.866 1.6,-1.093c0.528,-0.228 1.057,-0.342 1.586,-0.342c0.237,0 0.515,0.054 0.834,0.164c0.319,0.109 0.62,0.301 0.902,0.574c0.283,0.273 0.52,0.647 0.711,1.121c0.191,0.474 0.287,1.085 0.287,1.832c0,0.602 -0.045,1.203 -0.137,1.805c-0.091,0.601 -0.191,1.185 -0.3,1.75c-0.11,0.565 -0.21,1.098 -0.301,1.599c-0.091,0.502 -0.137,0.944 -0.137,1.327c0,0.911 0.164,1.608 0.492,2.091c0.328,0.483 0.83,0.725 1.504,0.725c0.547,0 1.067,-0.205 1.559,-0.615c0.492,-0.41 0.952,-0.934 1.381,-1.572c0.428,-0.639 0.82,-1.34 1.175,-2.106c0.356,-0.766 0.666,-1.499 0.93,-2.201c0.264,-0.702 0.488,-1.322 0.67,-1.86c0.182,-0.537 0.31,-0.906 0.383,-1.107l1.066,0.274c-0.255,0.638 -0.524,1.344 -0.806,2.119c-0.283,0.774 -0.597,1.554 -0.944,2.338c-0.346,0.783 -0.72,1.544 -1.121,2.283c-0.401,0.738 -0.847,1.39 -1.34,1.955c-0.492,0.565 -1.025,1.021 -1.599,1.367c-0.574,0.346 -1.208,0.52 -1.901,0.52c-0.583,0 -1.089,-0.114 -1.517,-0.342c-0.429,-0.228 -0.789,-0.533 -1.08,-0.916c-0.292,-0.383 -0.511,-0.839 -0.657,-1.367c-0.145,-0.529 -0.218,-1.094 -0.218,-1.696c0,-0.674 0.059,-1.367 0.177,-2.078c0.119,-0.711 0.247,-1.394 0.383,-2.051c0.137,-0.656 0.265,-1.262 0.383,-1.818c0.119,-0.556 0.178,-1.016 0.178,-1.381c0,-0.565 -0.11,-0.989 -0.328,-1.271c-0.219,-0.283 -0.52,-0.424 -0.903,-0.424c-0.528,0 -1.043,0.191 -1.545,0.574c-0.501,0.383 -0.984,0.893 -1.449,1.531c-0.465,0.638 -0.907,1.367 -1.326,2.188c-0.419,0.82 -0.807,1.663 -1.162,2.529c-0.356,0.866 -0.684,1.727 -0.984,2.584c-0.301,0.857 -0.561,1.632 -0.78,2.324c-0.219,0.693 -0.405,1.281 -0.56,1.764c-0.155,0.483 -0.26,0.788 -0.315,0.916l-1.586,-0.274c0.219,-1.075 0.42,-2.21 0.602,-3.404c0.182,-1.194 0.342,-2.37 0.478,-3.527c0.137,-1.158 0.246,-2.265 0.328,-3.322c0.083,-1.058 0.124,-1.996 0.124,-2.817c0,-1.112 -0.073,-1.864 -0.219,-2.256c-0.146,-0.392 -0.41,-0.588 -0.793,-0.588c-0.328,0 -0.638,0.123 -0.93,0.37c-0.292,0.246 -0.56,0.574 -0.807,0.984c-0.246,0.41 -0.487,0.889 -0.724,1.436c-0.237,0.546 -0.465,1.13 -0.684,1.75l-1.066,-0.274Z" style="fill:#fff;fill-rule:nonzero;"/><path d="M222.102,36.813c-0.748,2.023 -1.427,3.718 -2.038,5.085c-0.61,1.368 -1.203,2.47 -1.777,3.309c-0.574,0.839 -1.144,1.44 -1.709,1.805c-0.565,0.364 -1.185,0.547 -1.859,0.547c-0.821,0 -1.522,-0.288 -2.106,-0.862c-0.583,-0.574 -0.948,-1.463 -1.093,-2.666c-0.584,1.258 -1.34,2.283 -2.27,3.076c-0.93,0.793 -2.096,1.19 -3.5,1.19c-0.747,0 -1.463,-0.137 -2.146,-0.41c-0.684,-0.274 -1.29,-0.698 -1.819,-1.272c-0.528,-0.574 -0.952,-1.299 -1.271,-2.174c-0.319,-0.875 -0.479,-1.905 -0.479,-3.089c0,-1.204 0.151,-2.334 0.451,-3.391c0.301,-1.057 0.698,-2.028 1.19,-2.912c0.492,-0.884 1.062,-1.673 1.709,-2.365c0.647,-0.693 1.317,-1.276 2.01,-1.75c0.692,-0.474 1.385,-0.839 2.078,-1.094c0.692,-0.255 1.33,-0.383 1.914,-0.383c0.51,0 1.002,0.064 1.476,0.191c0.474,0.128 0.898,0.333 1.272,0.616c0.373,0.282 0.674,0.66 0.902,1.134c0.228,0.474 0.342,1.067 0.342,1.778c0,0.838 -0.16,1.567 -0.479,2.187c-0.319,0.62 -0.701,1.14 -1.148,1.559c-0.447,0.419 -0.902,0.756 -1.367,1.012c-0.465,0.255 -0.834,0.437 -1.108,0.546l-0.328,-1.066c0.055,0 0.26,-0.073 0.615,-0.219c0.356,-0.146 0.73,-0.387 1.122,-0.724c0.391,-0.338 0.752,-0.77 1.08,-1.299c0.328,-0.529 0.492,-1.176 0.492,-1.942c0,-0.875 -0.246,-1.544 -0.738,-2.009c-0.493,-0.465 -1.122,-0.698 -1.887,-0.698c-0.584,0 -1.267,0.21 -2.051,0.629c-0.784,0.42 -1.536,1.076 -2.256,1.969c-0.72,0.893 -1.331,2.024 -1.832,3.391c-0.501,1.367 -0.752,2.998 -0.752,4.894c0,1.878 0.333,3.309 0.998,4.293c0.666,0.985 1.563,1.477 2.694,1.477c0.565,0 1.107,-0.16 1.627,-0.479c0.519,-0.319 0.998,-0.743 1.435,-1.271c0.438,-0.529 0.83,-1.144 1.176,-1.846c0.346,-0.702 0.647,-1.426 0.902,-2.174c0,-0.583 0.069,-1.271 0.205,-2.064c0.137,-0.793 0.351,-1.6 0.643,-2.42l1.668,0.547c-0.091,0.237 -0.182,0.547 -0.274,0.929c-0.091,0.383 -0.177,0.803 -0.259,1.258c-0.082,0.456 -0.151,0.925 -0.205,1.408c-0.055,0.484 -0.082,0.953 -0.082,1.409c0,1.422 0.141,2.401 0.423,2.939c0.283,0.538 0.771,0.807 1.463,0.807c0.401,0 0.798,-0.146 1.19,-0.438c0.392,-0.291 0.815,-0.802 1.271,-1.531c0.456,-0.729 0.957,-1.718 1.504,-2.967c0.547,-1.248 1.185,-2.83 1.914,-4.744l1.067,0.274Z" style="fill:#fff;fill-rule:nonzero;"/></g></svg>