<svg viewBox="0 0 225 60" xmlns="http://www.w3.org/2000/svg" fill-rule="evenodd" clip-rule="evenodd" stroke-linejoin="round" stroke-miterlimit="1.414"><g fill="#fff" fill-rule="nonzero"><path d="M1 55.898c.128-.164.406-.528.834-1.093.428-.565.93-1.322 1.504-2.27a47.448 47.448 0 0 0 1.846-3.404c.656-1.322 1.276-2.821 1.859-4.498a49.42 49.42 0 0 0 1.545-5.551c.447-2.023.752-4.202.916-6.535.255-3.427.46-6.544.615-9.352.155-2.807.274-5.213.356-7.218.082-2.006.136-3.56.164-4.663l.041-1.681 1.066-.11c.474 2.334.939 4.731 1.395 7.192.455 2.461.925 4.913 1.408 7.355.483 2.443.98 4.836 1.49 7.178.51 2.342 1.066 4.557 1.668 6.645a64.99 64.99 0 0 0 1.941 5.769c.693 1.759 1.454 3.277 2.284 4.553.829 1.276 1.741 2.269 2.734 2.98.994.711 2.083 1.067 3.268 1.067.765 0 1.558-.265 2.379-.793.82-.529 1.567-1.386 2.242-2.571.674-1.184 1.23-2.725 1.668-4.621.437-1.895.656-4.201.656-6.918 0-1.622-.087-3.381-.26-5.277a67.479 67.479 0 0 0-.806-5.865 76.976 76.976 0 0 0-1.354-6.057 52.899 52.899 0 0 0-1.914-5.838 41.765 41.765 0 0 0-2.502-5.263c-.93-1.641-1.96-3.072-3.09-4.293L25.691 4c1.204 1.294 2.293 2.771 3.268 4.43a39.164 39.164 0 0 1 2.598 5.332 52.851 52.851 0 0 1 1.955 5.906 71.426 71.426 0 0 1 2.146 12.141 63.59 63.59 0 0 1 .26 5.55c0 2.279-.191 4.467-.574 6.563-.383 2.096-.971 3.946-1.764 5.551-.793 1.604-1.791 2.88-2.994 3.828-1.203.948-2.634 1.422-4.293 1.422-1.313 0-2.511-.324-3.596-.971-1.084-.647-2.073-1.545-2.967-2.693-.893-1.149-1.69-2.511-2.392-4.088a41.752 41.752 0 0 1-1.873-5.141 70.285 70.285 0 0 1-1.449-5.851c-.42-2.051-.784-4.134-1.094-6.249-.31-2.114-.579-4.22-.807-6.316a256.876 256.876 0 0 1-.588-6.043 244.097 244.097 0 0 1-.423 6.795 398.46 398.46 0 0 0-.534 8.436c-.182 3.135-.506 5.951-.97 8.449-.465 2.497-1.076 4.721-1.832 6.672-.757 1.95-1.646 3.659-2.666 5.127a18.13 18.13 0 0 1-3.5 3.787L1 55.898zM47.566 49.527a7.428 7.428 0 0 1-2.679-.492 6.213 6.213 0 0 1-2.256-1.49c-.647-.665-1.162-1.499-1.545-2.502-.383-1.003-.574-2.178-.574-3.527 0-1.641.237-3.104.711-4.389.474-1.285 1.08-2.37 1.818-3.254.738-.884 1.563-1.559 2.475-2.023.911-.465 1.804-.698 2.679-.698 1.131 0 2.028.374 2.694 1.121.665.748.998 1.714.998 2.899 0 1.021-.192 1.946-.574 2.775a6.813 6.813 0 0 1-1.518 2.133 6.879 6.879 0 0 1-4.69 1.873c-.419 0-.815-.023-1.189-.068a15.992 15.992 0 0 1-.998-.151c.109 1.131.328 2.106.656 2.926.328.82.739 1.495 1.231 2.024a4.76 4.76 0 0 0 3.554 1.558c.821 0 1.577-.2 2.27-.601a7.917 7.917 0 0 0 1.914-1.573 13.046 13.046 0 0 0 1.6-2.228c.483-.839.916-1.691 1.298-2.557.383-.866.725-1.713 1.026-2.543.301-.829.569-1.563.806-2.201l1.067.274c-.237.601-.515 1.33-.834 2.187a45.14 45.14 0 0 1-1.108 2.693 26.087 26.087 0 0 1-1.476 2.817 14.036 14.036 0 0 1-1.914 2.515 9.163 9.163 0 0 1-2.42 1.805c-.902.465-1.91.697-3.022.697zm.684-17.308c-.674 0-1.335.214-1.982.642-.648.429-1.226 1.017-1.737 1.764-.51.747-.925 1.632-1.244 2.652a10.947 10.947 0 0 0-.478 3.282c.237.091.569.168.998.232.428.064.952.096 1.572.096.656 0 1.308-.142 1.955-.424a5.933 5.933 0 0 0 1.75-1.176 5.86 5.86 0 0 0 1.258-1.791 5.359 5.359 0 0 0 .478-2.269 3.96 3.96 0 0 0-.164-1.149 2.802 2.802 0 0 0-.492-.957 2.47 2.47 0 0 0-.807-.656 2.388 2.388 0 0 0-1.107-.246z"/><path d="M66.707 15.457c0 1.148-.132 2.37-.396 3.664a37.104 37.104 0 0 1-1.04 3.938c-.428 1.33-.92 2.67-1.476 4.019a115.689 115.689 0 0 1-1.682 3.883 131.893 131.893 0 0 1-1.668 3.527 316.938 316.938 0 0 0-1.449 2.981 40.44 40.44 0 0 0 .383 4.047c.182 1.203.41 2.228.684 3.076.273.847.601 1.499.984 1.955.383.456.82.683 1.312.683.547 0 1.09-.255 1.627-.765.538-.511 1.08-1.231 1.627-2.16.547-.93 1.103-2.051 1.668-3.364a77.255 77.255 0 0 0 1.723-4.402l1.066.274a108.778 108.778 0 0 1-1.476 3.978 28.403 28.403 0 0 1-1.832 3.842c-.675 1.166-1.408 2.133-2.201 2.898-.793.766-1.646 1.149-2.557 1.149-.912 0-1.677-.283-2.297-.848-.62-.565-1.13-1.308-1.531-2.228-.401-.921-.711-1.969-.93-3.145a38.13 38.13 0 0 1-.492-3.596 48.671 48.671 0 0 1-.191-3.568 189.367 189.367 0 0 1-.028-3.076c0-1.659.069-3.309.205-4.949.137-1.641.347-3.209.629-4.704a37.197 37.197 0 0 1 1.026-4.17c.401-1.285.87-2.397 1.408-3.335.537-.939 1.13-1.673 1.777-2.202.647-.528 1.354-.793 2.119-.793.547 0 1.012.092 1.395.274.383.182.692.428.929.738.237.31.411.67.52 1.08.109.41.164.843.164 1.299zm-7.875 15.75v2.037c0 .666.018 1.308.055 1.928.455-.912.939-1.91 1.449-2.994.51-1.085 1.016-2.206 1.518-3.364a91.884 91.884 0 0 0 1.435-3.513 50.787 50.787 0 0 0 1.203-3.487 35.33 35.33 0 0 0 .834-3.253c.21-1.03.315-1.965.315-2.803a5.97 5.97 0 0 0-.069-.875 3.222 3.222 0 0 0-.246-.862 1.713 1.713 0 0 0-.506-.656c-.218-.173-.501-.26-.847-.26-.693 0-1.354.452-1.983 1.354-.629.902-1.176 2.156-1.64 3.76-.465 1.604-.834 3.513-1.108 5.728-.273 2.215-.41 4.635-.41 7.26z"/><path d="M79.477 43.594c-.566 1.021-1.112 1.868-1.641 2.543-.529.674-1.053 1.212-1.572 1.613-.52.401-1.044.684-1.573.848a5.498 5.498 0 0 1-1.64.246c-.456 0-.975-.073-1.559-.219-.583-.146-1.135-.451-1.654-.916-.52-.465-.957-1.135-1.313-2.01-.355-.875-.533-2.051-.533-3.527 0-1.477.173-2.867.52-4.17.346-1.303.729-2.447 1.148-3.432a20.643 20.643 0 0 1 1.695-3.144l1.012.328c-.018.018-.077.182-.178.492a51.492 51.492 0 0 0-.875 3.09 47.797 47.797 0 0 0-.492 2.201 33.214 33.214 0 0 0-.383 2.365c-.1.802-.15 1.577-.15 2.325 0 1.713.305 3.067.916 4.06.611.994 1.408 1.49 2.393 1.49 1.093 0 2.151-.633 3.172-1.9 1.02-1.267 1.996-3.04 2.925-5.318.164-1.058.388-2.042.67-2.954.283-.911.565-1.722.848-2.433a22.91 22.91 0 0 1 .779-1.777c.237-.474.41-.793.52-.958l.957.219a188.56 188.56 0 0 0-.752 3.678 65.423 65.423 0 0 0-.506 2.939 45.912 45.912 0 0 0-.287 2.338 19.999 19.999 0 0 0-.096 1.846c0 1.094.173 1.969.52 2.625.346.656.884.984 1.613.984.492 0 .966-.182 1.422-.546.456-.365.93-.967 1.422-1.805.492-.839 1.011-1.923 1.558-3.254a110.844 110.844 0 0 0 1.86-4.922l1.066.273c-.31.766-.62 1.586-.93 2.461-.31.875-.642 1.75-.998 2.625a39.826 39.826 0 0 1-1.121 2.516 12.112 12.112 0 0 1-1.312 2.133c-.483.62-1.007 1.112-1.573 1.476a3.403 3.403 0 0 1-1.886.547c-.656 0-1.231-.127-1.723-.383a3.696 3.696 0 0 1-1.244-1.039 4.612 4.612 0 0 1-.766-1.572 7.247 7.247 0 0 1-.259-1.982z"/><path d="M92.191 34.461c-.2.529-.396 1.048-.587 1.559-.192.51-.402 1.02-.629 1.531a12.037 12.037 0 0 1-1.928 3.008l-.219-.219a38.713 38.713 0 0 0 1.258-3.527 77.232 77.232 0 0 0 1.094-4.047 18.651 18.651 0 0 0-.246-.657 14.126 14.126 0 0 1-.192-.505 4.068 4.068 0 0 1-.137-.493 2.9 2.9 0 0 1-.054-.588c0-.291.041-.615.123-.97.082-.356.2-.688.355-.998.155-.31.333-.57.534-.78.2-.209.41-.314.628-.314.256 0 .461.059.616.178.155.118.278.269.369.451.091.182.155.374.191.574.037.201.055.392.055.574 0 .274-.032.588-.096.944-.064.355-.137.701-.219 1.039a252.6 252.6 0 0 1-.218.888c-.064.256-.096.42-.096.493.146.492.396.993.752 1.503.355.511.761 1.03 1.217 1.559.455.529.934 1.08 1.435 1.654.502.575.957 1.181 1.367 1.819.411.638.748 1.317 1.012 2.037a6.58 6.58 0 0 1 .397 2.283c0 1.148-.169 2.078-.506 2.789-.337.711-.789 1.258-1.354 1.641.821-.328 1.591-.912 2.311-1.75.72-.839 1.385-1.8 1.996-2.885a37.995 37.995 0 0 0 1.695-3.404c.52-1.185.98-2.288 1.381-3.309l1.067.273a89.672 89.672 0 0 1-1.969 4.649c-.693 1.513-1.477 2.862-2.352 4.047-.875 1.185-1.864 2.142-2.967 2.871-1.102.729-2.365 1.094-3.787 1.094a7.2 7.2 0 0 1-1.162-.096 6.238 6.238 0 0 1-1.148-.301 4.335 4.335 0 0 1-1.053-.56 3.75 3.75 0 0 1-.848-.848l.903-.602c.164.256.419.493.765.711.347.219.802.328 1.368.328.546 0 1.025-.113 1.435-.341.41-.228.757-.538 1.039-.93.283-.392.492-.852.629-1.381a6.74 6.74 0 0 0 .205-1.695c0-1.24-.178-2.306-.533-3.199a12.102 12.102 0 0 0-1.258-2.393 22.847 22.847 0 0 0-1.476-1.928 7.52 7.52 0 0 1-1.163-1.777zM152.402 32.438c-.018 3.427-.464 6.485-1.339 9.173-.875 2.689-2.111 4.972-3.706 6.85a15.753 15.753 0 0 1-5.769 4.293c-2.251.984-4.753 1.476-7.506 1.476-2.589 0-4.958-.501-7.109-1.503a16.675 16.675 0 0 1-5.537-4.129c-1.541-1.75-2.739-3.819-3.596-6.207-.857-2.388-1.285-4.977-1.285-7.766 0-2.37.237-4.548.711-6.535s1.098-3.801 1.873-5.442a23.539 23.539 0 0 1 2.693-4.429 29.68 29.68 0 0 1 3.158-3.487 27.873 27.873 0 0 1 3.268-2.638 38.452 38.452 0 0 1 3.021-1.887 26.92 26.92 0 0 1 2.407-1.203 41.938 41.938 0 0 1 1.462-.602l.329.903c-.566.237-1.34.619-2.325 1.148-.984.529-2.05 1.226-3.199 2.092-1.148.866-2.315 1.923-3.5 3.172-1.185 1.248-2.256 2.698-3.213 4.347-.957 1.65-1.741 3.523-2.351 5.62-.611 2.096-.916 4.438-.916 7.027 0 2.716.323 5.296.97 7.738.647 2.443 1.618 4.585 2.912 6.426a14.547 14.547 0 0 0 4.854 4.389c1.941 1.084 4.215 1.627 6.822 1.627.748 0 1.655-.114 2.721-.342 1.066-.228 2.183-.634 3.35-1.217 1.166-.583 2.328-1.367 3.486-2.352 1.157-.984 2.192-2.233 3.103-3.746.912-1.513 1.655-3.322 2.229-5.427.574-2.106.861-4.562.861-7.37 0-.783-.032-1.599-.095-2.447a26.263 26.263 0 0 0-.315-2.529 20.878 20.878 0 0 1-5.291 3.268 15.302 15.302 0 0 1-6.057 1.216c-1.403 0-2.716-.196-3.937-.588-1.221-.392-2.283-.947-3.186-1.668a8 8 0 0 1-2.132-2.57c-.52-.993-.78-2.092-.78-3.295 0-1.531.297-2.894.889-4.088a9.216 9.216 0 0 1 2.338-3.007 10.376 10.376 0 0 1 3.295-1.86 11.447 11.447 0 0 1 3.787-.642c1.768 0 3.318.305 4.648.916 1.331.61 2.47 1.426 3.418 2.447a13.283 13.283 0 0 1 2.338 3.527 21.238 21.238 0 0 1 1.408 4.156 20.727 20.727 0 0 0 2.434-2.871c.747-1.057 1.431-2.269 2.051-3.636l1.011.41c-1.348 2.807-3.108 5.268-5.277 7.383.201 1.02.346 2.023.438 3.007.091.985.136 1.942.136 2.871zm-12.058-2.571c1.804 0 3.586-.291 5.345-.875 1.76-.583 3.414-1.522 4.963-2.816a22.721 22.721 0 0 0-1.298-4.088 13.37 13.37 0 0 0-2.133-3.473 9.798 9.798 0 0 0-3.117-2.42c-1.213-.601-2.63-.902-4.252-.902-1.313 0-2.457.2-3.432.602-.975.401-1.791.938-2.447 1.613a6.605 6.605 0 0 0-1.477 2.338 7.837 7.837 0 0 0-.492 2.748c0 .802.141 1.631.424 2.488a6.4 6.4 0 0 0 1.408 2.352c.656.711 1.518 1.294 2.584 1.75 1.066.455 2.374.683 3.924.683zM178.488 36.813c-.747 2.023-1.426 3.718-2.037 5.085-.611 1.368-1.203 2.47-1.777 3.309-.574.839-1.144 1.44-1.709 1.805a3.366 3.366 0 0 1-1.86.547c-.82 0-1.522-.288-2.105-.862-.583-.574-.948-1.463-1.094-2.666-.583 1.258-1.34 2.283-2.269 3.076-.93.793-2.097 1.19-3.5 1.19a5.737 5.737 0 0 1-2.147-.41 4.973 4.973 0 0 1-1.818-1.272c-.529-.574-.953-1.299-1.272-2.174-.319-.875-.478-1.905-.478-3.089 0-1.204.15-2.334.451-3.391a13.604 13.604 0 0 1 1.19-2.912 12.224 12.224 0 0 1 3.718-4.115 9.535 9.535 0 0 1 2.078-1.094c.693-.255 1.331-.383 1.914-.383a5.68 5.68 0 0 1 1.477.191c.474.128.898.333 1.271.616.374.282.675.66.903 1.134.228.474.342 1.067.342 1.778 0 .838-.16 1.567-.479 2.187a5.677 5.677 0 0 1-1.148 1.559 6.827 6.827 0 0 1-1.368 1.012c-.464.255-.833.437-1.107.546l-.328-1.066c.055 0 .26-.073.615-.219.356-.146.729-.387 1.121-.724.392-.338.752-.77 1.08-1.299.328-.529.493-1.176.493-1.942 0-.875-.247-1.544-.739-2.009-.492-.465-1.121-.698-1.886-.698-.584 0-1.267.21-2.051.629-.784.42-1.536 1.076-2.256 1.969-.72.893-1.331 2.024-1.832 3.391-.501 1.367-.752 2.998-.752 4.894 0 1.878.333 3.309.998 4.293.665.985 1.563 1.477 2.693 1.477.565 0 1.108-.16 1.627-.479.52-.319.998-.743 1.436-1.271a9.478 9.478 0 0 0 1.176-1.846 18.18 18.18 0 0 0 .902-2.174c0-.583.068-1.271.205-2.064.137-.793.351-1.6.643-2.42l1.668.547a7.371 7.371 0 0 0-.274.929 23.487 23.487 0 0 0-.465 2.666c-.054.484-.082.953-.082 1.409 0 1.422.142 2.401.424 2.939.283.538.77.807 1.463.807.401 0 .797-.146 1.189-.438.392-.291.816-.802 1.272-1.531.456-.729.957-1.718 1.504-2.967.547-1.248 1.185-2.83 1.914-4.744l1.066.274z"/><path d="M177.422 36.539c.273-.711.57-1.39.889-2.037.319-.647.66-1.217 1.025-1.709a5.252 5.252 0 0 1 1.189-1.189 2.442 2.442 0 0 1 1.436-.452c.255 0 .547.055.875.164.328.11.643.329.943.657.301.328.552.802.752 1.422.201.619.301 1.44.301 2.46 0 .529-.027 1.112-.082 1.75-.055.638-.109 1.267-.164 1.887.565-1.203 1.126-2.219 1.682-3.049.556-.829 1.102-1.494 1.64-1.996.538-.501 1.071-.866 1.6-1.093a3.973 3.973 0 0 1 1.586-.342c.237 0 .515.054.834.164.319.109.62.301.902.574.283.273.52.647.711 1.121.191.474.287 1.085.287 1.832 0 .602-.045 1.203-.137 1.805a44.105 44.105 0 0 1-.3 1.75c-.11.565-.21 1.098-.301 1.599a7.552 7.552 0 0 0-.137 1.327c0 .911.164 1.608.492 2.091.328.483.83.725 1.504.725.547 0 1.067-.205 1.559-.615.492-.41.952-.934 1.381-1.572.428-.639.82-1.34 1.175-2.106.356-.766.666-1.499.93-2.201s.488-1.322.67-1.86c.182-.537.31-.906.383-1.107l1.066.274a72.851 72.851 0 0 0-.806 2.119 38.12 38.12 0 0 1-.944 2.338 31.37 31.37 0 0 1-1.121 2.283c-.401.738-.847 1.39-1.34 1.955a6.749 6.749 0 0 1-1.599 1.367 3.614 3.614 0 0 1-1.901.52c-.583 0-1.089-.114-1.517-.342a3.26 3.26 0 0 1-1.08-.916 3.976 3.976 0 0 1-.657-1.367 6.39 6.39 0 0 1-.218-1.696c0-.674.059-1.367.177-2.078.119-.711.247-1.394.383-2.051.137-.656.265-1.262.383-1.818.119-.556.178-1.016.178-1.381 0-.565-.11-.989-.328-1.271-.219-.283-.52-.424-.903-.424-.528 0-1.043.191-1.545.574-.501.383-.984.893-1.449 1.531a16.26 16.26 0 0 0-1.326 2.188 33.39 33.39 0 0 0-1.162 2.529 51.876 51.876 0 0 0-.984 2.584 79.127 79.127 0 0 0-.78 2.324c-.219.693-.405 1.281-.56 1.764-.155.483-.26.788-.315.916l-1.586-.274c.219-1.075.42-2.21.602-3.404s.342-2.37.478-3.527c.137-1.158.246-2.265.328-3.322.083-1.058.124-1.996.124-2.817 0-1.112-.073-1.864-.219-2.256-.146-.392-.41-.588-.793-.588-.328 0-.638.123-.93.37-.292.246-.56.574-.807.984-.246.41-.487.889-.724 1.436-.237.546-.465 1.13-.684 1.75l-1.066-.274z"/><path d="M222.102 36.813c-.748 2.023-1.427 3.718-2.038 5.085-.61 1.368-1.203 2.47-1.777 3.309-.574.839-1.144 1.44-1.709 1.805a3.365 3.365 0 0 1-1.859.547 2.896 2.896 0 0 1-2.106-.862c-.583-.574-.948-1.463-1.093-2.666-.584 1.258-1.34 2.283-2.27 3.076-.93.793-2.096 1.19-3.5 1.19a5.732 5.732 0 0 1-2.146-.41 4.969 4.969 0 0 1-1.819-1.272c-.528-.574-.952-1.299-1.271-2.174-.319-.875-.479-1.905-.479-3.089 0-1.204.151-2.334.451-3.391a13.656 13.656 0 0 1 1.19-2.912 11.961 11.961 0 0 1 1.709-2.365 12.143 12.143 0 0 1 2.01-1.75 9.49 9.49 0 0 1 2.078-1.094c.692-.255 1.33-.383 1.914-.383.51 0 1.002.064 1.476.191a3.67 3.67 0 0 1 1.272.616c.373.282.674.66.902 1.134.228.474.342 1.067.342 1.778 0 .838-.16 1.567-.479 2.187a5.657 5.657 0 0 1-1.148 1.559 6.822 6.822 0 0 1-1.367 1.012c-.465.255-.834.437-1.108.546l-.328-1.066c.055 0 .26-.073.615-.219.356-.146.73-.387 1.122-.724.391-.338.752-.77 1.08-1.299.328-.529.492-1.176.492-1.942 0-.875-.246-1.544-.738-2.009-.493-.465-1.122-.698-1.887-.698-.584 0-1.267.21-2.051.629-.784.42-1.536 1.076-2.256 1.969-.72.893-1.331 2.024-1.832 3.391-.501 1.367-.752 2.998-.752 4.894 0 1.878.333 3.309.998 4.293.666.985 1.563 1.477 2.694 1.477.565 0 1.107-.16 1.627-.479a5.844 5.844 0 0 0 1.435-1.271 9.385 9.385 0 0 0 1.176-1.846 18.18 18.18 0 0 0 .902-2.174c0-.583.069-1.271.205-2.064.137-.793.351-1.6.643-2.42l1.668.547a7.723 7.723 0 0 0-.274.929 23.532 23.532 0 0 0-.464 2.666c-.055.484-.082.953-.082 1.409 0 1.422.141 2.401.423 2.939.283.538.771.807 1.463.807.401 0 .798-.146 1.19-.438.392-.291.815-.802 1.271-1.531.456-.729.957-1.718 1.504-2.967.547-1.248 1.185-2.83 1.914-4.744l1.067.274z"/></g></svg>